<svg fill="none" height="100%" width="100%" viewBox="0 0 1080 1080" xmlns:xlink="http://www.w3.org/1999/xlink" xmlns="http://www.w3.org/2000/svg"><g id="i0"><g transform="translate(540,504)"><animateTransform repeatCount="indefinite" type="translate" attributeName="transform" dur="5s" begin="0s" calcMode="spline" values="540 504; 506.5 541; 540.25 576.25; 579.25 539.75; 540 504.237; 540 504" keyTimes="0; 0.25; 0.5; 0.75; 0.993333; 1" keySplines="0 0 1 1; 0 0 1 1; 0 0 1 1; 0 0 1 1; 0 0 1 1" fill="freeze" /><g transform="rotate(-4)"><animateTransform repeatCount="indefinite" type="rotate" attributeName="transform" dur="5s" begin="0s" calcMode="spline" values="-4; 7; 2; -8; -4" keyTimes="0; 0.25; 0.5; 0.75; 1" keySplines="0.167 0.167 0.833 0.955; 0.167 0 0.833 0.75; 0.167 0.125 0.833 0.95; 0.167 0 0.833 0.833" fill="freeze" /><g transform="scale(6,6)"><animateTransform repeatCount="indefinite" type="scale" attributeName="transform" dur="5s" begin="0s" calcMode="spline" values="6 6; 5.5 5.5; 6 6; 5.5 5.5; 8.667 8.667; 6 6" keyTimes="0; 0.25; 0.5; 0.75; 0.993333; 1" keySplines="0 0 1 1; 0 0 1 1; 0 0 1 1; 0 0 1 1; 0 0 1 1" fill="freeze" /><g transform="translate(-34,-34)"><g id="i1" transform="matrix(1,0,0,1,0,0)"><g id="i2" transform="matrix(1,0,0,1,34,34)"><path stroke-linejoin="round" stroke-linecap="round" stroke-width="1" stroke="#000000" fill="#4940ff" d="M15.557,-19.092C15.557,-19.092,7.071,-10.607,7.071,-10.607C3.165,-6.701,-3.167,-6.701,-7.072,-10.607C-7.072,-10.607,-15.557,-19.092,-15.557,-19.092C-16.533,-20.068,-18.115,-20.068,-19.091,-19.092C-20.068,-18.115,-20.068,-16.532,-19.091,-15.556C-19.091,-15.556,-10.607,-7.071,-10.607,-7.071C-6.702,-3.166,-6.702,3.166,-10.607,7.071C-10.607,7.071,-19.091,15.556,-19.091,15.556C-20.068,16.533,-20.068,18.116,-19.091,19.092C-18.115,20.068,-16.533,20.068,-15.557,19.092C-15.557,19.092,-7.072,10.607,-7.072,10.607C-3.167,6.701,3.165,6.701,7.071,10.607C7.071,10.607,15.557,19.092,15.557,19.092C16.533,20.068,18.115,20.068,19.091,19.092C20.068,18.116,20.068,16.533,19.091,15.556C19.091,15.556,10.607,7.071,10.607,7.071C6.702,3.166,6.702,-3.166,10.607,-7.071C10.607,-7.071,19.091,-15.556,19.091,-15.556C20.068,-16.532,20.068,-18.115,19.091,-19.092C18.115,-20.068,16.533,-20.068,15.557,-19.092Z" /></g><g id="i3" transform="matrix(1,0,0,1,34,34.001)"><path stroke-linejoin="round" stroke-linecap="round" stroke-width="1" stroke="#000000" fill="#ffffff" d="M3,0C3,1.657,1.657,3,0,3C-1.657,3,-3,1.657,-3,0C-3,-1.657,-1.657,-3,0,-3C1.657,-3,3,-1.657,3,0Z" /></g></g><g id="i4" transform="matrix(1,0,0,1,14.5,14.5)"><path stroke-linejoin="round" stroke-linecap="round" stroke-width="1" stroke="#000000" d="M4.688,11.05C3.248,11.661,1.664,12,0.001,12C-6.627,12,-11.999,6.627,-11.999,0C-11.999,-6.628,-6.627,-12,0.001,-12C6.627,-12,11.999,-6.628,11.999,0C11.999,1.657,11.664,3.235,11.056,4.671" /></g><g id="i5" transform="matrix(1,0,0,1,53.5,14.5)"><path stroke-linejoin="round" stroke-linecap="round" stroke-width="1" stroke="#000000" d="M-11.05,4.688C-11.661,3.248,-12,1.664,-12,0C-12,-6.627,-6.627,-12,0,-12C6.628,-12,12,-6.627,12,0C12,6.627,6.628,12,0,12C-1.663,12,-3.246,11.662,-4.687,11.051" /></g><g id="i6" transform="matrix(1,0,0,1,53.501,53.5)"><path stroke-linejoin="round" stroke-linecap="round" stroke-width="1" stroke="#000000" d="M-4.687,-11.05C-3.248,-11.661,-1.664,-12,0,-12C6.627,-12,12,-6.627,12,0C12,6.628,6.627,12,0,12C-6.627,12,-12,6.628,-12,0C-12,-1.663,-11.663,-3.247,-11.05,-4.687" /></g><g id="i7" transform="matrix(1,0,0,1,14.5,53.501)"><path stroke-linejoin="round" stroke-linecap="round" stroke-width="1" stroke="#000000" d="M11.05,-4.688C11.661,-3.248,12,-1.664,12,0C12,6.627,6.627,12,0,12C-6.628,12,-12,6.627,-12,0C-12,-6.627,-6.628,-12,0,-12C1.657,-12,3.237,-11.664,4.672,-11.057" /></g><g id="i8" transform="matrix(1,0,0,1,0,0)"><g id="i9" transform="matrix(0.73,0,0,0.73,14.292,53.709)"><path stroke-linejoin="round" stroke-linecap="round" stroke-width="1.4" stroke="#000000" d="M11.62,-3.006C11.868,-2.046,12,-1.038,12,0C12,6.627,6.627,12,0,12C-6.628,12,-12,6.627,-12,0C-12,-6.627,-6.628,-12,0,-12C1.081,-12,2.129,-11.857,3.125,-11.589" /></g><g id="i10" transform="matrix(0.49,0,0,0.49,14.417,53.626)"><path stroke-linejoin="round" stroke-linecap="round" stroke-width="2" stroke="#000000" d="M12,0C12,6.627,6.627,12,0,12C-6.628,12,-12,6.627,-12,0C-12,-6.627,-6.628,-12,0,-12" /></g></g><g id="i11" transform="matrix(-1,0,0,1,68.084,0.083)"><g id="i9" transform="matrix(0.73,0,0,0.73,14.292,53.709)"><path stroke-linejoin="round" stroke-linecap="round" stroke-width="1.4" stroke="#000000" d="M11.62,-3.006C11.868,-2.046,12,-1.038,12,0C12,6.627,6.627,12,0,12C-6.628,12,-12,6.627,-12,0C-12,-6.627,-6.628,-12,0,-12C1.081,-12,2.129,-11.857,3.125,-11.589" /></g><g id="i10" transform="matrix(0.49,0,0,0.49,14.417,53.626)"><path stroke-linejoin="round" stroke-linecap="round" stroke-width="2" stroke="#000000" d="M12,0C12,6.627,6.627,12,0,12C-6.628,12,-12,6.627,-12,0C-12,-6.627,-6.628,-12,0,-12" /></g></g><g id="i12" transform="matrix(1,0,0,-1,-0.167,67.835)"><g id="i9" transform="matrix(0.73,0,0,0.73,14.292,53.709)"><path stroke-linejoin="round" stroke-linecap="round" stroke-width="1.4" stroke="#000000" d="M11.62,-3.006C11.868,-2.046,12,-1.038,12,0C12,6.627,6.627,12,0,12C-6.628,12,-12,6.627,-12,0C-12,-6.627,-6.628,-12,0,-12C1.081,-12,2.129,-11.857,3.125,-11.589" /></g><g id="i10" transform="matrix(0.49,0,0,0.49,14.417,53.626)"><path stroke-linejoin="round" stroke-linecap="round" stroke-width="2" stroke="#000000" d="M12,0C12,6.627,6.627,12,0,12C-6.628,12,-12,6.627,-12,0C-12,-6.627,-6.628,-12,0,-12" /></g></g><g id="i13" transform="matrix(-1,0,0,-1,67.917,67.835)"><g id="i9" transform="matrix(0.73,0,0,0.73,14.292,53.709)"><path stroke-linejoin="round" stroke-linecap="round" stroke-width="1.4" stroke="#000000" d="M11.62,-3.006C11.868,-2.046,12,-1.038,12,0C12,6.627,6.627,12,0,12C-6.628,12,-12,6.627,-12,0C-12,-6.627,-6.628,-12,0,-12C1.081,-12,2.129,-11.857,3.125,-11.589" /></g><g id="i10" transform="matrix(0.49,0,0,0.49,14.417,53.626)"><path stroke-linejoin="round" stroke-linecap="round" stroke-width="2" stroke="#000000" d="M12,0C12,6.627,6.627,12,0,12C-6.628,12,-12,6.627,-12,0C-12,-6.627,-6.628,-12,0,-12" /></g></g></g></g></g></g></g></svg>